inDegrees=no
num_controls=7
num_derivatives=13
num_iterations=92
num_multipliers=7
num_parameters=0
num_slacks=7
num_states=26
objective=0.446131
objective_accelerations=0.057519
objective_balance=0.003528
objective_effort=0.022929
objective_height=0.356651
objective_ligament=0.005504
solver_duration=1233.752201
status=Solve_Succeeded
success=true
DataType=double
version=3
OpenSimVersion=4.5
endheader
time	/jointset/ground_pelvis/pelvis_tilt/value	/jointset/ground_pelvis/pelvis_tx/value	/jointset/ground_pelvis/pelvis_ty/value	/jointset/hip_l/hip_flexion_l/value	/jointset/hip_l/hip_adduction_l/value	/jointset/hip_l/hip_rotation_l/value	/jointset/back/lumbar_extension/value	/jointset/patellofemoral_l/patellar_flexion_l/value	/jointset/knee_l/knee_flexion_l/value	/jointset/knee_l/knee_adduction_l/value	/jointset/knee_l/knee_rotation_l/value	/jointset/ankle_l/ankle_angle_l/value	/jointset/subtalar_l/subtalar_angle_l/value	/jointset/ground_pelvis/pelvis_tilt/speed	/jointset/ground_pelvis/pelvis_tx/speed	/jointset/ground_pelvis/pelvis_ty/speed	/jointset/hip_l/hip_flexion_l/speed	/jointset/hip_l/hip_adduction_l/speed	/jointset/hip_l/hip_rotation_l/speed	/jointset/back/lumbar_extension/speed	/jointset/patellofemoral_l/patellar_flexion_l/speed	/jointset/knee_l/knee_flexion_l/speed	/jointset/knee_l/knee_adduction_l/speed	/jointset/knee_l/knee_rotation_l/speed	/jointset/ankle_l/ankle_angle_l/speed	/jointset/subtalar_l/subtalar_angle_l/speed	/forceset/tau_hip_flexion_l	/forceset/tau_hip_adduction_l	/forceset/tau_hip_rotation_l	/forceset/tau_knee_flexion_l	/forceset/tau_ankle_angle_l	/forceset/tau_subtalar_angle_l	/forceset/tau_lumbar_extension	lambda_cid13_p0	lambda_cid13_p1	lambda_cid13_p2	lambda_cid13_p3	lambda_cid13_p4	lambda_cid13_p5	lambda_cid14_p0	/jointset/ground_pelvis/pelvis_tilt/accel	/jointset/ground_pelvis/pelvis_tx/accel	/jointset/ground_pelvis/pelvis_ty/accel	/jointset/hip_l/hip_flexion_l/accel	/jointset/hip_l/hip_adduction_l/accel	/jointset/hip_l/hip_rotation_l/accel	/jointset/back/lumbar_extension/accel	/jointset/patellofemoral_l/patellar_flexion_l/accel	/jointset/knee_l/knee_flexion_l/accel	/jointset/knee_l/knee_adduction_l/accel	/jointset/knee_l/knee_rotation_l/accel	/jointset/ankle_l/ankle_angle_l/accel	/jointset/subtalar_l/subtalar_angle_l/accel	gamma_cid13_p0	gamma_cid13_p1	gamma_cid13_p2	gamma_cid13_p3	gamma_cid13_p4	gamma_cid13_p5	gamma_cid14_p0
0.5	-0.3264356797460569	-0.03673113019525544	0.7604141293883404	1.087190495912062	-0.4368036259045887	-0.2214136918505192	-0.2536574988530187	0.8144249450231081	0.8144249450231029	-0.1248149383729012	-0.1588976200549826	0.1145309031702634	-0.02890430679903673	-0.7369236411492999	-0.2067461728803255	-0.5315830645223862	2.44358279224845	-0.2068336769912257	0.7494385571126645	-0.1201312102335224	2.009406231748307	2.009406231749189	0.1349898236556091	-0.08709524334401512	0.4773297249388348	0.008356420063659335	-0.1606259863737611	0.02060045008236909	-0.0121059662828606	-0.2297794056845134	0.07795499081504915	0.03878541153532879	0.1616724291199264	-7.836853042954765	-18.5316719856872	6.11304472125972	-8.165636183334737	-522.2465051388886	-59.69118346747931	-24.79935035830725	0.7421622803037713	0.6217912519312538	-0.4638586980121088	-1.329203081994587	0.7347248091498427	-0.2155648732670316	1.056569373171828	-1.277304851987295	-1.277304851987265	0.07233126448390811	0.1721855140108573	-0.4922487095972079	0.5508779919268774	-5.724489128713129e-07	-3.76848908271666e-07	2.934795868993259e-06	1.738615512440574e-07	-6.475586751291642e-07	1.496662837702653e-08	-4.617541605552381e-07
0.51	-0.3337660272769463	-0.03876724616991112	0.7550763033917506	1.111555037975174	-0.4388363448786322	-0.2139287291768637	-0.2548070508772566	0.8344519095954818	0.8344519095954898	-0.1234658519846495	-0.1597593368609721	0.1192783373703682	-0.02879512069948429	-0.729040997500182	-0.2004587856203218	-0.5358649143468514	2.428983783562045	-0.1996925026675367	0.7474499369966896	-0.1098110483923506	1.995708669108311	1.995708669108522	0.1348238819825125	-0.08523929348282575	0.4720796550716477	0.01347002589889853	-0.1659790767876154	0.02108974311146765	-0.01213851066866589	-0.2326494110277819	0.07725484672918964	0.03932588569254545	0.1657973226263919	-8.258661299692051	-18.67221223057805	6.112225598737186	-8.065639960741525	-525.9085427809199	-59.56679965130631	-23.87133725156374	0.8269738092736736	0.6349848025938017	-0.3928925083260797	-1.576609484736805	0.7061092031729845	-0.2065211546833947	1.014961522782302	-1.457591990108588	-1.457591990209191	-0.06153538286348492	0.1942161296763877	-0.552996990084192	0.489693190435488	-5.593321147883718e-07	-2.985109857158403e-07	2.963142133497954e-06	1.915348786453795e-07	-6.254065691502236e-07	9.107402060086842e-08	-4.562124025545737e-07
0.52	-0.3410144166909342	-0.04073993380405496	0.7496991500201836	1.135763318006869	-0.4407971930175996	-0.2064668548191522	-0.2558543568964436	0.854333576537441	0.8543335765374448	-0.1221185207130703	-0.1606021108868323	0.1239709486988404	-0.02863518027935687	-0.7205320177687474	-0.1940605047779569	-0.5394485395178164	2.412330385964709	-0.1924595099760655	0.7448208939238891	-0.09968200922348065	1.980346705664202	1.980346705663742	0.1346388003231358	-0.08330668732150083	0.4663651506122709	0.0185072841786595	-0.1713321672014517	0.02157903614056804	-0.0121710550546248	-0.2355194163710407	0.07655470264332938	0.03986635984976606	0.1699222161328749	-8.683792423043702	-18.81358837176285	6.113160942173036	-8.002403567921391	-529.6488850123084	-59.50518922006476	-22.94476002414269	0.8674294967671575	0.6439699684034934	-0.3242137673120976	-1.740080864180742	0.7530884827062684	-0.3436494646321576	1.018344838711443	-1.610185012809818	-1.610185012809922	0.06850326722789249	0.1875167740379488	-0.5851356280351437	0.5356084808312425	-5.428877610888092e-07	-2.322763579988043e-07	2.961624689667901e-06	2.060015587620454e-07	-6.014680793142596e-07	1.654748614684717e-07	-4.48330441972626e-07
0.53	-0.3481747775856225	-0.04264819045473476	0.7442896440949531	1.159795233190876	-0.4426852916810448	-0.1990342138039516	-0.2568013234159889	0.8740535935404585	0.8740535935404478	-0.1207732081707848	-0.1614251317073602	0.1286041751110571	-0.02842526148881786	-0.7114428315235888	-0.1875821843689154	-0.5423351221766629	2.393732961315208	-0.1851531594470114	0.7416083719282891	-0.08975414416488336	1.963400578556604	1.963400578556266	0.1344130894145877	-0.08129319050874546	0.4602074720250571	0.02345593531980886	-0.1766494720238568	0.02201889180820061	-0.0121305658597366	-0.2382168807976216	0.0755769198531247	0.04023271252953346	0.1739612165233641	-9.198300626049598	-18.85665503241257	6.090380713831738	-7.760262249950319	-533.2942367301512	-59.30950985717031	-22.02140983033859	0.9441918925576863	0.6511019456334406	-0.2533697912831991	-1.967609368603029	0.7201043862506434	-0.3252783270620008	0.9735799174638127	-1.775155179079889	-1.775155179061451	-0.06963657182071102	0.2095028369093398	-0.6419667651080926	0.4710985437428153	-5.246432072916601e-07	-1.445407923947145e-07	2.973271813497373e-06	2.279044714737042e-07	-5.804933852607893e-07	2.421177028683327e-07	-4.377138226328572e-07
0.54	-0.3552413408770266	-0.04449139612762831	0.7388547744879118	1.183631566907738	-0.4445001876295496	-0.1916367429607171	-0.2576502967693406	0.8935964835485319	0.8935964835485041	-0.1194304583979718	-0.1622277702193553	0.1331736481791927	-0.02816653516427019	-0.701772497111727	-0.1810503092207059	-0.5445212758800014	2.373214092534977	-0.1778189669881293	0.7377868595311647	-0.08008337598508777	1.944921306675201	1.944921306674986	0.1341262464290569	-0.07923022561538937	0.453614481796099	0.02826879098039908	-0.1819667768462256	0.02245874747582879	-0.01209007666485326	-0.2409143452242042	0.07459913706291332	0.04059906520929215	0.1780002169138926	-9.715991987297306	-18.90019936902602	6.068860730719591	-7.553840294833471	-537.0159344340467	-59.17524397914405	-21.10557057910878	0.9836591301077782	0.6546809162371253	-0.1841279762104866	-2.124369690326834	0.7586568686718353	-0.4654475449370869	0.9669254629510957	-1.916813967570876	-1.916813967570695	0.05627685183133554	0.1974103901580809	-0.6721979563839927	0.5084493847194212	-5.044069427482452e-07	-3.301695508579894e-08	2.999483990907597e-06	2.580347053542916e-07	-5.627977844134825e-07	3.212410554953723e-07	-4.240716233908183e-07
